<svg width="64" height="64" viewBox="0 0 64 64" fill="none" xmlns="http://www.w3.org/2000/svg">
<path d="M26.2254 52.4744L34.8212 37.5776L39.7315 29.0619L41.0727 26.7445L44.8857 8.82613H38.3792L27.2174 20.5795V20.574H17.3635C18.3999 19.9752 19.3587 19.3986 20.2399 18.8498C21.1211 18.3009 21.9967 17.7576 22.8668 17.2254C23.87 16.5933 24.7678 15.9502 25.5714 15.296C26.375 14.6474 27.0567 13.9267 27.622 13.1449C28.1873 12.3632 28.6306 11.4928 28.9465 10.5448C29.2624 9.59121 29.4232 8.4824 29.4232 7.21835C29.4232 4.95084 28.6251 3.18229 27.0234 1.9127C25.4162 0.632022 23.0165 0 19.8131 0C18.4442 0 17.0753 0.116425 15.7119 0.349275C14.343 0.582125 13.0351 0.909224 11.7826 1.32503C10.53 1.74638 9.35511 2.24534 8.25777 2.82747C7.15489 3.40959 6.20718 4.0527 5.40358 4.7568L9.90379 11.8144C11.2394 10.5448 12.4144 9.63002 13.4341 9.06452C14.4483 8.49903 15.4459 8.21074 16.4102 8.21074C17.8457 8.21074 18.5606 8.84276 18.5606 10.1123C18.5606 10.5448 18.4885 10.9218 18.3334 11.2378C18.1837 11.5538 17.8179 11.9142 17.2305 12.3133C16.6486 12.7125 15.7784 13.2115 14.6312 13.8158C13.4785 14.4145 11.9045 15.2184 9.90379 16.2163C8.43512 16.9537 7.16043 17.7188 6.07417 18.5171C4.98792 19.3155 4.05684 20.2247 3.26986 21.2448C2.48287 22.2649 1.8289 23.407 1.29132 24.671C0.770356 25.9462 0.332528 27.4153 0 29.0841H19.1425L11.5498 37.5609H29.2735L27.9767 43.7647L26.2254 52.4744ZM28.5253 29.0508L33.48 23.0411L32.1776 29.0508H28.5253Z" fill="#1B3464"/>
<path d="M45.5003 29.067L47.5287 20.0024L37.3866 37.5604L37.37 37.5771H47.4733L29.8105 64H40.3905L63.9999 29.067H45.5003Z" fill="#1B3464"/>
<path d="M59.5056 38.5257C57.8818 45.173 53.908 50.9056 48.51 54.792L44.5529 60.652C55.41 55.9229 63.0803 45.234 63.4294 32.7155L59.5056 38.5257ZM3.75176 31.8174C3.75176 31.4293 3.75731 31.0412 3.77947 30.6532H0.631544C0.614917 31.0412 0.609375 31.4293 0.609375 31.8174C0.609375 48.0005 12.8409 61.3284 28.5583 63.0526L30.559 60.0643C15.6507 59.2993 3.75176 46.9194 3.75176 31.8174ZM32.0277 0.388184C30.6533 0.388184 29.301 0.476888 27.9709 0.648754C27.982 0.654298 27.9875 0.665386 27.9986 0.67093C29.0183 1.48036 29.7831 2.45057 30.2819 3.58156C30.8583 3.54275 31.4402 3.52612 32.0277 3.52612C37.1265 3.52612 41.9204 4.88441 46.0548 7.25726C46.2876 7.39032 46.5148 7.52338 46.7365 7.66198C53.6974 11.9198 58.6854 19.1049 59.9767 27.493H63.1468C61.0463 12.1804 47.9115 0.388184 32.0277 0.388184ZM7.93607 11.6426C6.15705 13.766 4.65513 16.1222 3.48574 18.6669C4.00116 18.1624 4.55537 17.6967 5.14838 17.2587C6.2956 16.4105 7.66451 15.5844 9.20522 14.8138C9.33269 14.7473 9.58208 14.6253 9.58208 14.6253L7.93607 11.6426Z" fill="#1B3464"/>
</svg>
